<svg viewBox="0 0 2161 342.112" xmlns="http://www.w3.org/2000/svg" xmlns:xlink="http://www.w3.org/1999/xlink" width="2161.000000" height="342.111816" fill="none" customFrame="#000000">
	<g id="текст цитата">
		<path id="Просто делайте, что нравится," d="M24.576 186.064L24.576 99.024L72.576 99.024L72.576 186.064L90.752 186.064L90.752 96.848L6.4 96.848L6.4 186.064L24.576 186.064ZM103.525 219.728L121.701 219.728C121.701 219.728 121.701 184.528 121.701 183.376C125.285 185.04 132.453 188.24 143.205 188.24C164.197 188.24 184.293 183.248 184.293 154.96C184.293 127.44 169.317 120.016 150.885 120.016C136.549 120.016 129.637 127.184 124.261 143.312C122.981 147.024 122.341 150.864 121.701 154.704L121.701 122.064L103.525 122.064L103.525 219.728ZM147.941 122.448C161.765 122.448 165.605 136.272 165.605 154.96C165.605 181.968 156.389 185.68 140.517 185.68C129.765 185.68 125.157 182.096 121.701 180.432C122.085 163.664 124.389 122.448 147.941 122.448ZM193.23 154.192C193.23 176.592 212.686 188.112 233.678 188.112C254.542 188.112 274.126 176.592 274.126 154.192C274.126 131.664 254.542 120.016 233.678 120.016C212.686 120.016 193.23 131.664 193.23 154.192ZM233.678 122.064C249.678 122.064 255.438 132.048 255.438 154.192C255.438 175.952 250.574 186.192 233.678 186.192C216.27 186.192 211.918 175.952 211.918 154.192C211.918 132.048 217.806 122.064 233.678 122.064ZM321.889 188.112C341.729 188.112 351.073 178.384 353.249 176.592L352.225 175.312C343.905 182.48 333.537 185.936 321.889 185.936C306.657 185.936 302.049 172.112 302.049 154.192C302.049 132.816 309.473 122.32 321.889 122.32C339.169 122.32 345.825 129.744 347.233 138.064L349.409 137.552C348.001 128.208 339.425 120.144 321.889 120.144C298.849 120.144 283.105 134.48 283.105 154.192C283.105 173.648 297.697 188.112 321.889 188.112ZM381.844 124.24L381.844 186.064L400.02 186.064L400.02 124.24L425.236 124.24L425.236 122.064L356.5 122.064L356.5 124.24L381.844 124.24ZM423.355 154.192C423.355 176.592 442.811 188.112 463.803 188.112C484.667 188.112 504.251 176.592 504.251 154.192C504.251 131.664 484.667 120.016 463.803 120.016C442.811 120.016 423.355 131.664 423.355 154.192ZM463.803 122.064C479.803 122.064 485.563 132.048 485.563 154.192C485.563 175.952 480.699 186.192 463.803 186.192C446.395 186.192 442.043 175.952 442.043 154.192C442.043 132.048 447.931 122.064 463.803 122.064ZM630.912 186.064C637.824 186.192 643.584 191.824 643.584 198.992C643.584 206.032 637.824 211.792 630.656 211.792C623.488 211.792 617.728 206.032 617.728 198.992L615.68 198.992C615.68 207.184 622.336 213.968 630.656 213.968C638.976 213.968 645.632 207.184 645.632 198.992C645.632 191.312 640.384 185.04 632.576 184.016C623.744 159.952 617.6 146 608.384 122.064L589.312 122.064L577.152 157.392C568.832 181.584 566.656 183.888 561.28 183.888L561.28 186.064L630.912 186.064ZM569.856 181.072C572.416 176.976 575.232 169.552 579.2 158.16L590.592 125.264L613.376 184.016L567.424 184.016C568.192 183.248 569.088 182.352 569.856 181.072ZM636.48 154.192C636.48 173.648 651.072 188.112 676.032 188.112C688.192 188.112 696.64 184.656 706.624 176.592L705.472 175.184C697.152 182.352 686.912 185.936 675.264 185.936C660.416 185.936 656.448 172.624 655.68 160.08L704.96 160.08C704.96 138.832 701.504 120.144 675.264 120.144C655.04 120.144 636.48 132.048 636.48 154.192ZM655.552 158.032L655.552 154.32C655.552 140.752 658.624 122.192 675.264 122.192C698.816 122.192 702.784 138.832 702.784 158.032L655.552 158.032ZM711.215 186.064L713.519 186.064L734.127 125.136L757.807 186.064L776.879 186.064L752.047 122.064L732.975 122.064L711.215 186.064ZM812.938 188.112C832.906 188.112 839.05 172.24 841.866 155.472L842.122 153.936L842.122 186.064L860.298 186.064L860.298 146C860.298 123.856 841.098 120.144 825.738 120.144C802.442 120.144 792.202 128.464 788.106 134.992L801.546 141.392C790.922 143.696 782.73 150.992 782.73 162.768C782.73 183.76 795.786 188.112 812.938 188.112ZM817.034 142.288L841.354 142.288C839.946 160.72 836.362 186.192 812.81 186.192C805.258 186.192 801.418 180.816 801.418 164.048C801.418 148.048 806.666 142.288 817.034 142.288ZM806.666 140.496C806.666 137.424 811.274 122.064 825.098 122.064C841.226 122.064 841.61 127.056 841.61 140.112L812.81 140.112C810.634 140.112 808.586 140.24 806.666 140.496ZM873.15 186.064L891.326 186.064C896.19 186.064 908.222 184.656 918.334 176.08C926.27 169.296 931.006 159.824 933.822 147.152L933.822 186.064L951.998 186.064L951.998 122.064L933.822 122.064L933.822 130.384C931.39 179.408 901.31 183.76 891.326 183.888L891.326 122.064L873.15 122.064L873.15 186.064ZM912.574 112.464C917.822 112.464 922.046 108.24 922.046 103.12L919.87 103.12C919.87 107.088 916.67 110.416 912.574 110.416C908.606 110.416 905.278 107.088 905.278 103.12L903.23 103.12C903.23 108.24 907.454 112.464 912.574 112.464ZM983.719 124.24L983.719 186.064L1001.9 186.064L1001.9 124.24L1027.11 124.24L1027.11 122.064L958.375 122.064L958.375 124.24L983.719 124.24ZM1025.23 154.192C1025.23 173.648 1039.82 188.112 1064.78 188.112C1076.94 188.112 1085.39 184.656 1095.37 176.592L1094.22 175.184C1085.9 182.352 1075.66 185.936 1064.01 185.936C1049.17 185.936 1045.2 172.624 1044.43 160.08L1093.71 160.08C1093.71 138.832 1090.25 120.144 1064.01 120.144C1043.79 120.144 1025.23 132.048 1025.23 154.192ZM1044.3 158.032L1044.3 154.32C1044.3 140.752 1047.37 122.192 1064.01 122.192C1087.57 122.192 1091.53 138.832 1091.53 158.032L1044.3 158.032ZM1111.68 188.24C1115.01 188.24 1118.34 186.32 1120.13 183.76C1120.26 188.368 1118.46 192.592 1113.98 194.512C1112.7 195.024 1111.3 195.28 1109.89 195.28C1107.71 195.28 1105.41 194.64 1103.36 193.488L1102.34 195.408C1104.64 196.688 1107.2 197.328 1109.89 197.328C1115.27 197.328 1120.13 194.128 1121.67 188.752C1122.56 185.68 1122.69 180.304 1122.43 177.36C1121.79 171.216 1117.44 167.248 1111.68 167.248C1105.92 167.248 1101.19 171.856 1101.19 177.744C1101.19 183.376 1106.18 188.24 1111.68 188.24ZM1209.27 166.096C1225.78 166.096 1231.8 156.496 1235.26 138.448L1235.26 186.064L1253.43 186.064L1253.43 122.064L1235.26 122.064C1235.26 125.392 1235.38 129.616 1231.8 144.208C1227.96 159.568 1220.54 163.92 1209.14 163.92C1201.59 163.92 1201.08 159.184 1201.08 145.232L1201.08 122.064L1182.78 122.064L1182.78 138.32C1182.78 157.648 1192.12 166.096 1209.27 166.096ZM1285.22 124.24L1285.22 186.064L1303.4 186.064L1303.4 124.24L1328.61 124.24L1328.61 122.064L1259.88 122.064L1259.88 124.24L1285.22 124.24ZM1326.73 154.192C1326.73 176.592 1346.19 188.112 1367.18 188.112C1388.04 188.112 1407.63 176.592 1407.63 154.192C1407.63 131.664 1388.04 120.016 1367.18 120.016C1346.19 120.016 1326.73 131.664 1326.73 154.192ZM1367.18 122.064C1383.18 122.064 1388.94 132.048 1388.94 154.192C1388.94 175.952 1384.07 186.192 1367.18 186.192C1349.77 186.192 1345.42 175.952 1345.42 154.192C1345.42 132.048 1351.31 122.064 1367.18 122.064ZM1487.95 186.064L1487.95 153.424L1530.19 153.424L1530.19 186.064L1548.37 186.064L1548.37 122.064L1530.19 122.064L1530.19 151.248L1487.95 151.248L1487.95 122.064L1469.78 122.064L1469.78 186.064L1487.95 186.064ZM1561.15 219.728L1579.33 219.728C1579.33 219.728 1579.33 184.528 1579.33 183.376C1582.91 185.04 1590.08 188.24 1600.83 188.24C1621.82 188.24 1641.92 183.248 1641.92 154.96C1641.92 127.44 1626.94 120.016 1608.51 120.016C1594.17 120.016 1587.26 127.184 1581.89 143.312C1580.61 147.024 1579.97 150.864 1579.33 154.704L1579.33 122.064L1561.15 122.064L1561.15 219.728ZM1605.57 122.448C1619.39 122.448 1623.23 136.272 1623.23 154.96C1623.23 181.968 1614.01 185.68 1598.14 185.68C1587.39 185.68 1582.78 182.096 1579.33 180.432C1579.71 163.664 1582.01 122.448 1605.57 122.448ZM1681.06 188.112C1701.03 188.112 1707.18 172.24 1709.99 155.472L1710.25 153.936L1710.25 186.064L1728.42 186.064L1728.42 146C1728.42 123.856 1709.22 120.144 1693.86 120.144C1670.57 120.144 1660.33 128.464 1656.23 134.992L1669.67 141.392C1659.05 143.696 1650.85 150.992 1650.85 162.768C1650.85 183.76 1663.91 188.112 1681.06 188.112ZM1685.16 142.288L1709.48 142.288C1708.07 160.72 1704.49 186.192 1680.94 186.192C1673.38 186.192 1669.54 180.816 1669.54 164.048C1669.54 148.048 1674.79 142.288 1685.16 142.288ZM1674.79 140.496C1674.79 137.424 1679.4 122.064 1693.22 122.064C1709.35 122.064 1709.73 127.056 1709.73 140.112L1680.94 140.112C1678.76 140.112 1676.71 140.24 1674.79 140.496ZM1780.57 186.064C1796.06 186.064 1813.08 186.448 1813.08 168.656C1813.08 155.856 1803.87 152.528 1792.73 151.504C1799.77 149.968 1807.96 145.872 1807.96 136.016C1807.96 122.064 1794.78 120.144 1781.34 120.144C1766.62 120.144 1760.86 128.72 1759.32 134.224L1759.32 122.064L1741.28 122.064L1741.28 186.064L1780.57 186.064ZM1759.32 152.784L1778.4 152.784C1789.28 152.784 1794.01 155.856 1794.01 168.784C1794.01 183.888 1786.71 183.888 1773.66 183.888L1759.32 183.888L1759.32 152.784ZM1759.32 141.52C1760.73 131.92 1766.88 122.448 1779.29 122.448C1786.84 122.448 1789.53 124.88 1789.53 136.144C1789.53 149.2 1784.41 150.608 1776.86 150.608L1759.32 150.608C1759.32 147.792 1759.32 144.336 1759.32 141.52ZM1824.03 186.064L1842.2 186.064C1864.73 186.064 1879.83 169.424 1884.7 147.152L1884.7 186.064L1902.87 186.064L1902.87 122.064L1884.7 122.064L1884.7 130.256C1882.27 179.28 1852.19 183.888 1842.2 183.888L1842.2 122.064L1824.03 122.064L1824.03 186.064ZM1934.59 124.24L1934.59 186.064L1952.77 186.064L1952.77 124.24L1977.99 124.24L1977.99 122.064L1909.25 122.064L1909.25 124.24L1934.59 124.24ZM2014.89 188.112C2034.73 188.112 2044.07 178.384 2046.25 176.592L2045.22 175.312C2036.91 182.48 2026.54 185.936 2014.89 185.936C1999.66 185.936 1995.05 172.112 1995.05 154.192C1995.05 132.816 2002.47 122.32 2014.89 122.32C2032.17 122.32 2038.82 129.744 2040.23 138.064L2042.41 137.552C2041 128.208 2032.43 120.144 2014.89 120.144C1991.85 120.144 1976.1 134.48 1976.1 154.192C1976.1 173.648 1990.7 188.112 2014.89 188.112ZM2083.55 161.744L2077.15 178.64C2075.74 182.48 2072.03 185.168 2067.93 185.168L2067.42 185.168C2062.04 185.168 2057.82 180.176 2057.82 174.928C2057.82 172.24 2058.84 169.808 2060.64 167.888L2059.1 166.352C2056.92 168.656 2055.64 171.728 2055.64 174.928C2055.64 181.328 2060.76 187.216 2067.42 187.216L2067.93 187.216C2072.92 187.216 2077.4 184.144 2079.2 179.408L2085.85 161.744L2108.51 161.744C2109.02 168.784 2109.02 181.456 2109.02 186.064L2127.45 186.064L2127.45 122.064L2109.02 122.064L2109.02 143.952C2108.64 138.576 2105.95 119.888 2085.72 119.888C2067.55 119.888 2053.98 125.648 2053.98 140.112C2053.98 155.088 2061.66 161.744 2083.55 161.744ZM2086.75 121.808C2107.23 121.808 2107.87 145.744 2108.25 156.24L2108.38 159.568L2088.8 159.568C2077.79 159.568 2072.41 155.216 2072.41 140.88C2072.41 126.288 2078.04 121.808 2086.75 121.808ZM2146.81 188.24C2150.13 188.24 2153.46 186.32 2155.25 183.76C2155.38 188.368 2153.59 192.592 2149.11 194.512C2147.83 195.024 2146.42 195.28 2145.01 195.28C2142.84 195.28 2140.53 194.64 2138.49 193.488L2137.46 195.408C2139.77 196.688 2142.33 197.328 2145.01 197.328C2150.39 197.328 2155.25 194.128 2156.79 188.752C2157.69 185.68 2157.81 180.304 2157.56 177.36C2156.92 171.216 2152.57 167.248 2146.81 167.248C2141.05 167.248 2136.31 171.856 2136.31 177.744C2136.31 183.376 2141.3 188.24 2146.81 188.24Z" fill="rgb(31,30,30)" fill-rule="nonzero" />
		<path id="а мы вам поможем" d="M798.688 342.112C818.656 342.112 824.8 326.24 827.616 309.472L827.872 307.936L827.872 340.064L846.048 340.064L846.048 300C846.048 277.856 826.848 274.144 811.488 274.144C788.192 274.144 777.952 282.464 773.856 288.992L787.296 295.392C776.672 297.696 768.48 304.992 768.48 316.768C768.48 337.76 781.536 342.112 798.688 342.112ZM802.784 296.288L827.104 296.288C825.696 314.72 822.112 340.192 798.56 340.192C791.008 340.192 787.168 334.816 787.168 318.048C787.168 302.048 792.416 296.288 802.784 296.288ZM792.416 294.496C792.416 291.424 797.024 276.064 810.848 276.064C826.976 276.064 827.36 281.056 827.36 294.112L798.56 294.112C796.384 294.112 794.336 294.24 792.416 294.496ZM910.15 340.064L928.326 340.064L928.326 279.52L955.206 314.464L982.086 279.52L982.086 340.064L1000.26 340.064L1000.26 276.064L981.83 276.064L955.206 311.008L928.454 276.064L910.15 276.064L910.15 340.064ZM1013.03 276.064L1013.03 340.064L1046.69 340.064C1068.32 340.064 1085.73 337.504 1085.73 315.232C1085.73 295.52 1066.4 290.656 1050.15 290.656L1031.2 290.656L1031.2 276.064L1013.03 276.064ZM1031.2 337.888L1031.2 292.832L1044.13 292.832C1055.52 292.832 1066.91 297.184 1066.91 315.232C1066.91 333.408 1058.46 337.888 1040.67 337.888L1031.2 337.888ZM1091.49 276.064L1091.49 340.064L1109.67 340.064L1109.67 276.064L1091.49 276.064ZM1213.07 340.064C1228.56 340.064 1245.58 340.448 1245.58 322.656C1245.58 309.856 1236.37 306.528 1225.23 305.504C1232.27 303.968 1240.46 299.872 1240.46 290.016C1240.46 276.064 1227.28 274.144 1213.84 274.144C1199.12 274.144 1193.36 282.72 1191.82 288.224L1191.82 276.064L1173.78 276.064L1173.78 340.064L1213.07 340.064ZM1191.82 306.784L1210.9 306.784C1221.78 306.784 1226.51 309.856 1226.51 322.784C1226.51 337.888 1219.21 337.888 1206.16 337.888L1191.82 337.888L1191.82 306.784ZM1191.82 295.52C1193.23 285.92 1199.38 276.448 1211.79 276.448C1219.34 276.448 1222.03 278.88 1222.03 290.144C1222.03 303.2 1216.91 304.608 1209.36 304.608L1191.82 304.608C1191.82 301.792 1191.82 298.336 1191.82 295.52ZM1284.81 342.112C1304.78 342.112 1310.93 326.24 1313.74 309.472L1314 307.936L1314 340.064L1332.17 340.064L1332.17 300C1332.17 277.856 1312.97 274.144 1297.61 274.144C1274.32 274.144 1264.08 282.464 1259.98 288.992L1273.42 295.392C1262.8 297.696 1254.6 304.992 1254.6 316.768C1254.6 337.76 1267.66 342.112 1284.81 342.112ZM1288.91 296.288L1313.23 296.288C1311.82 314.72 1308.24 340.192 1284.69 340.192C1277.13 340.192 1273.29 334.816 1273.29 318.048C1273.29 302.048 1278.54 296.288 1288.91 296.288ZM1278.54 294.496C1278.54 291.424 1283.15 276.064 1296.97 276.064C1313.1 276.064 1313.48 281.056 1313.48 294.112L1284.69 294.112C1282.51 294.112 1280.46 294.24 1278.54 294.496ZM1345.03 340.064L1363.2 340.064L1363.2 279.52L1390.08 314.464L1416.96 279.52L1416.96 340.064L1435.14 340.064L1435.14 276.064L1416.71 276.064L1390.08 311.008L1363.33 276.064L1345.03 276.064L1345.03 340.064ZM1499.15 276.064L1499.15 340.064L1517.33 340.064L1517.33 278.24L1555.85 278.24L1555.85 340.064L1574.03 340.064L1574.03 276.064L1499.15 276.064ZM1584.85 308.192C1584.85 330.592 1604.31 342.112 1625.3 342.112C1646.17 342.112 1665.75 330.592 1665.75 308.192C1665.75 285.664 1646.17 274.016 1625.3 274.016C1604.31 274.016 1584.85 285.664 1584.85 308.192ZM1625.3 276.064C1641.3 276.064 1647.06 286.048 1647.06 308.192C1647.06 329.952 1642.2 340.192 1625.3 340.192C1607.9 340.192 1603.54 329.952 1603.54 308.192C1603.54 286.048 1609.43 276.064 1625.3 276.064ZM1676.65 340.064L1694.83 340.064L1694.83 279.52L1721.71 314.464L1748.59 279.52L1748.59 340.064L1766.76 340.064L1766.76 276.064L1748.33 276.064L1721.71 311.008L1694.95 276.064L1676.65 276.064L1676.65 340.064ZM1777.6 308.192C1777.6 330.592 1797.06 342.112 1818.05 342.112C1838.92 342.112 1858.5 330.592 1858.5 308.192C1858.5 285.664 1838.92 274.016 1818.05 274.016C1797.06 274.016 1777.6 285.664 1777.6 308.192ZM1818.05 276.064C1834.05 276.064 1839.81 286.048 1839.81 308.192C1839.81 329.952 1834.95 340.192 1818.05 340.192C1800.65 340.192 1796.29 329.952 1796.29 308.192C1796.29 286.048 1802.18 276.064 1818.05 276.064ZM1864.98 340.064L1883.67 340.064C1883.67 317.92 1889.68 307.296 1905.43 307.296L1911.83 307.296L1911.83 340.064L1930 340.064L1930 307.296L1936.15 307.296C1951.89 307.296 1957.91 317.92 1957.91 340.064L1976.6 340.064C1976.6 318.816 1961.11 305.12 1939.09 305.12L1939.09 300.768C1939.09 288.992 1939.99 276.576 1955.48 276.576C1961.62 276.576 1966.48 281.44 1966.48 287.584C1966.48 293.6 1961.62 298.592 1955.48 298.592L1955.48 300.768C1962.77 300.768 1968.66 294.88 1968.66 287.584C1968.66 280.288 1962.77 274.4 1955.48 274.4C1937.43 274.4 1936.92 289.376 1936.92 302.944L1936.92 305.12L1930 305.12L1930 244.704L1911.83 244.704L1911.83 305.12L1904.79 305.12L1904.79 302.944C1904.79 289.376 1904.15 274.4 1886.1 274.4C1878.93 274.4 1872.92 280.288 1872.92 287.584C1872.92 294.88 1878.93 300.768 1886.1 300.768L1886.1 298.592C1880.08 298.592 1875.09 293.6 1875.09 287.584C1875.09 281.44 1880.08 276.576 1886.1 276.576C1901.59 276.576 1902.48 288.992 1902.48 300.768L1902.48 305.12C1880.6 305.12 1864.98 318.816 1864.98 340.064ZM1984.35 308.192C1984.35 327.648 1998.95 342.112 2023.91 342.112C2036.07 342.112 2044.52 338.656 2054.5 330.592L2053.35 329.184C2045.03 336.352 2034.79 339.936 2023.14 339.936C2008.29 339.936 2004.32 326.624 2003.56 314.08L2052.83 314.08C2052.83 292.832 2049.38 274.144 2023.14 274.144C2002.92 274.144 1984.35 286.048 1984.35 308.192ZM2003.43 312.032L2003.43 308.32C2003.43 294.752 2006.5 276.192 2023.14 276.192C2046.69 276.192 2050.66 292.832 2050.66 312.032L2003.43 312.032ZM2064.15 340.064L2082.33 340.064L2082.33 279.52L2109.21 314.464L2136.09 279.52L2136.09 340.064L2154.26 340.064L2154.26 276.064L2135.83 276.064L2109.21 311.008L2082.45 276.064L2064.15 276.064L2064.15 340.064Z" fill="rgb(31,30,30)" fill-rule="nonzero" />
	</g>
</svg>
